<svg xml:space="preserve" width="201.773" height="182.151" version="1.1" style="clip-rule:evenodd;fill-rule:evenodd;image-rendering:optimizeQuality;shape-rendering:geometricPrecision;text-rendering:geometricPrecision" viewBox="0 0 201.773 182.099" id="svg16" xmlns="http://www.w3.org/2000/svg"><defs id="defs4"><style type="text/css" id="style2">.fil0{fill:#ffffff;fill-rule:nonzero}</style></defs><g id="Слой_x0020_1" transform="rotate(-15.633 -1131.813 1683.375)"><path class="fil0" d="M466.533 407.633c-.85-1.373 9.873-28.58 22.846-17.508 18.51 15.59 29.189 30.166 40.812 51.16 7.76 14.27-6.872 15.049-20.476 20.196-.177-.44 3.171-2.292 7.441-4.243 4.457-2.085 9.743-4.202 9.187-7.918-1.606-12.046-36.974-58.62-45.204-56.647-7.91 2.025-15.42 15.406-14.606 14.96z" id="path7" style="stroke-width:.115088"/><path class="fil0" d="M463.083 412.683c2.264-1.779-.187.135.746-.54 4.156-3.287 8.153-1.49 10.221-.004 4.5 3.28 7.456 5.404 13.098 11.834 4.242 4.886 9.552 11.84 13.375 18.307 3.106 5.28 5.16 8.908 5.597 12.853.22 3.25-2.873 7.615-5.651 8.487-1.306.944-11.848 3.451-14.066 3.919-1.617.317 13.816-5.443 14.021-11.84-.083-.507-.208-1.269-.711-2.751-.737-2.591-1.925-4.431-4.005-7.898-3.62-6.187-8.66-12.768-12.768-17.468-5.076-5.845-7.803-7.85-11.94-10.823-6.036-5.01-12.62 6.707-16.308 12.213 0 0 .71-2.359 1.947-5.951 1.066-3.043 2.542-7.092 6.444-10.338z" id="path9" style="stroke-width:.115088"/><path class="fil0" d="M453.351 433.207c1.322-.53 3.022-.338 4.458.47 6.294 3.403 18.808 20.913 22.983 28.26 2.568 4.535 2.206 6.785.05 8.91-3.445 3.485-9.877 4.017-11.614 4.562-1.87.358 6.592-3.061 8.784-5.923 1.393-2.001.703-3.349-2.16-8.096-3.78-6.213-15.569-23.111-20.753-24.192-.32-.052-.523-.332-.938-.316-3.478.1-7.56 7.026-9.85 8.966 0 0 5.288-11.349 9.04-12.64z" id="path11" style="stroke-width:.115088"/><path class="fil0" d="M431.141 447.273c-2.774-3.249-5.616-6.591-7.11-8.068-3.619-3.632-5.236-3.315-7.832-1.013l-21.742 18.84c-1.45 1.332-1.595 1.721.546 4.291.633.679 3.112 3.715 4.081 4.86 25.632 28.193 55.628 68.71 79.178 100.111l-77.588-91.035c-2.033-2.223-3.77-4.233-5.17-5.778-10.998-12.072-11.403-12.632-2.325-20.898l18.011-16.142c12.472-11.429 12.042-9.273 22.574 3.137 30.02 35.245 111.788 146.406 123.218 161.433z" id="path13" style="stroke-width:.115088"/></g></svg>
