<svg xml:space="preserve" width="105.612" height="159.101" style="clip-rule:evenodd;fill-rule:evenodd;image-rendering:optimizeQuality;shape-rendering:geometricPrecision;text-rendering:geometricPrecision" viewBox="0 0 105.612 159.056" version="1.1" id="svg19" xmlns="http://www.w3.org/2000/svg"><defs id="defs4"><style id="style2">.str0,.str1{stroke:#2b2a29}.str1{stroke-width:2.3619}.str0{stroke-width:.899886}.fil0,.fil1{fill:#ffffff}.fil0{fill-rule:nonzero}</style></defs><g id="Слой_x0020_1" transform="matrix(.08844 0 0 .08844 -24.548 -21.486)"><path class="fil0 str0" d="M853 301c-174 29-334 52-508 80-9 2-19 15-26 28-8 16-13 36-13 58l6 1371c0 22 5 41 13 56 7 13 16 21 24 22 173 26 324 46 497 71 1 1 3 1 3 1 9 0 18-5 24-13 9-10 15-24 17-42 1-5 1-11 1-17l7-1549c0-7 0-8-1-14-3-17-9-30-17-40-6-8-14-12-22-12zm-94-39 111-18c4-1 7-1 11-1 19 0 37 9 50 25 13 15 21 34 25 58 2 8 2 17 2 27l-5 1580c0 8-1 16-2 23-3 24-12 44-25 59-14 17-32 26-52 26h-9c-173-26-345-51-518-76-21-3-39-19-51-41-11-20-18-46-18-74V447c0-28 7-54 18-75 12-23 31-39 51-42 138-23 275-45 412-68z" id="path6"/><path class="fil1 str1" d="m1266 696-3-20c12 0 33 0 75-1 23 0 84-1 101 15 35 33 36 125 26 193-6 34-17 57-31 67-6 4-11 8-20 9-16 1-37 0-60 0l-83-1 3-24c24 0 121 0 132-3 37-14 36-197 8-223-15-14-121-11-148-12z" id="path8"/><path class="fil1" d="m1094 629-2-20c21 0 107 0 122 9 16 9 21 29 25 48 11 55 16 103 16 151-1 35-5 70-9 109-6 46-8 72-18 87-18 27-51 18-134 18l3-21c34 0 74 4 95-3 5-2 9-6 12-9 12-12 24-186 21-223-4-54-16-129-30-136-14-8-41-10-101-10z" style="stroke:#2b2a29;stroke-width:2.3619" id="path10"/><path class="fil1 str1" d="M986 542v-21c87 0 71 10 86 83 18 83 16 212 9 325-3 52-9 100-12 139-7 59-6 76-63 83h-20v-21c23 0 42-7 45-29 7-77 15-179 18-248 3-93 0-183-16-287-3-19-12-24-47-24z" id="path12"/><path class="fil0 str0" d="M486 415c37-6 2 0 37-6h6c9 0 18 4 25 11 6 6 11 15 12 25 0 3 1 6 1 9v36c0 19-1 39-1 58v93c0 13-4 25-11 34-7 10-18 16-30 17-11 1-22 1-34 2-11 1-22 2-33 2l-24 2c-12 1-25 2-40 3h-2c-11 0-20-5-27-13-6-8-10-18-10-29-1-1-1-2-1-3V481c0-12 4-24 10-33 7-10 16-17 27-18l11-2c4-1-12 2 53-8 100-16-3 0 31-5zm41 19c-61 9-25 4-38 5-53 9 50-7-30 5-29 5-23 3-62 9l-11 2c-4 0-7 3-10 7-4 6-6 12-6 19v177c1 6 3 11 5 14 3 3 5 5 8 5 12-1 35-3 50-4 4 0 9 0 24-1 11-1 22-2 33-2 11-1 22-2 34-3 4 0 8-3 11-7 4-5 7-12 7-19V449c-1-5-3-9-6-12-2-2-5-3-7-3zm227-64c15-2 30-5 46-8h6c10 0 20 4 27 11 6 7 11 17 12 28 1 3 1 6 1 9v103c-1 32-1 65-1 97v5c0 14-5 27-12 37-8 10-20 17-32 18l-75 5c-12 1-23 2-35 3s-24 1-36 2h-2c-11 0-20-5-27-13s-11-19-12-31v-99c1-25 1-49 1-74v-22c0-13 4-25 11-35s17-18 28-20c19-3 39-6 59-9l12-2zm50 17c-16 2-31 5-47 7l-28 5-12 2c-20 3-49 8-68 12-5 0-9 4-13 9-4 6-6 13-6 21v22c0 24-1 49-1 74v97c1 7 3 12 6 16s6 5 10 5h1c11 0 32-3 43-4 12-1 24-1 36-2l75-6c5 0 11-3 15-9 4-5 7-13 7-21V513c0-18 0-35 1-52v-51c0-2 0-4-1-5 0-6-3-11-6-14-2-3-6-4-10-4z" id="path14"/><path class="fil0" d="M350 1858V869c0-49 16-80 66-81l361-12c31-1 49 8 60 25 10 16 12 38 12 64l-1 1060-24-5 1-1055c0-22-1-40-8-51-6-9-18-14-40-14l-370 14c-27 1-36 12-41 32-2 9-2 21-2 30l5 985z" id="path16"/></g></svg>
