<svg
  xmlns="http://www.w3.org/2000/svg"
  width="32"
  height="28"
  viewBox="0 0 32 28"
>
  <g>
    <g>
      <g>
        <g>
          <path d="M9.039 19.79v-.928h14.318v.928z" />
        </g>
        <g>
          <path d="M9.039 22.994v-.929h14.318v.928z" />
        </g>
      </g>
      <g>
        <path d="M21.62 1.585l3.857 3.857H21.62zM6.262 17.617V.928h14.43v4.909c0 .294.24.533.533.533h4.909v11.247h.928V5.714l-2.857-2.857L21.602.254 21.348 0H5.334v17.617z" />
      </g>
      <g>
        <path d="M26.134 26.282H6.262v-9.074h19.872zM5.334 16.28V27.21h21.728V16.28z" />
      </g>
      <g>
        <path d="M29.175 13.781a.883.883 0 1 1 0-1.765.883.883 0 0 1 0 1.765zM3.403 10.31A2.644 2.644 0 0 0 .76 12.954v4.899c0 1.048.85 1.898 1.898 1.898h3.604v-2.543h19.872v2.543h3.604c1.048 0 1.898-.85 1.898-1.898v-4.9a2.644 2.644 0 0 0-2.644-2.643z" />
      </g>
    </g>
  </g>
</svg>
