<?xml version="1.0" encoding="UTF-8" standalone="no"?>
<svg
   width="0.64552116cm"
   height="0.64552116cm"
   viewBox="0 0 24.397649 24.397649"
   version="1.1"
   id="svg4"
   sodipodi:docname="telegram.svg"
   inkscape:version="1.1.1 (1:1.1+202109281949+c3084ef5ed)"
   xmlns:inkscape="http://www.inkscape.org/namespaces/inkscape"
   xmlns:sodipodi="http://sodipodi.sourceforge.net/DTD/sodipodi-0.dtd"
   xmlns="http://www.w3.org/2000/svg"
   xmlns:svg="http://www.w3.org/2000/svg">
  <defs
     id="defs8" />
  <sodipodi:namedview
     id="namedview6"
     pagecolor="#ffffff"
     bordercolor="#666666"
     borderopacity="1.0"
     inkscape:pageshadow="2"
     inkscape:pageopacity="0.0"
     inkscape:pagecheckerboard="0"
     showgrid="false"
     fit-margin-top="0"
     fit-margin-left="0"
     fit-margin-right="0"
     fit-margin-bottom="0"
     inkscape:zoom="5.6568543"
     inkscape:cx="20.506097"
     inkscape:cy="22.892582"
     inkscape:window-width="1848"
     inkscape:window-height="1016"
     inkscape:window-x="72"
     inkscape:window-y="27"
     inkscape:window-maximized="1"
     inkscape:current-layer="svg4"
     units="cm"
     inkscape:document-units="cm" />
  <path
     d="M 12.198826,0 C 5.4595649,0 0,5.4603517 0,12.198826 c 0,6.738473 5.4603517,12.198825 12.198826,12.198825 6.73926,0 12.198825,-5.460352 12.198825,-12.198825 C 24.397651,5.4603517 18.937299,0 12.198826,0 Z m 5.99159,8.3573759 -2.002181,9.4348081 c -0.147991,0.668964 -0.546188,0.831093 -1.101826,0.516287 l -3.049711,-2.247731 -1.470941,1.416636 c -0.162108,0.162106 -0.299853,0.299855 -0.6146647,0.299855 L 10.167531,14.673213 15.819128,9.5670217 C 16.065494,9.3505822 15.764814,9.2278001 15.439778,9.4442395 L 8.4549662,13.841339 5.4446112,12.901636 C 4.7905988,12.695435 4.7756451,12.247622 5.5823565,11.932816 L 17.3436,7.3972106 c 0.546187,-0.1967555 1.023122,0.1329817 0.846043,0.9593784 z"
     id="path2"
     style="fill:#f9f9f9;stroke-width:0.787018" />
</svg>
