<svg xmlns="http://www.w3.org/2000/svg" version="1.0" viewBox="0 0 164.897 127.121"><path fill="#ff2a2a" d="M121.046.133c-6.8.633-13.748 3.537-19.607 8.177-4.374 3.471-9.144 8.793-12.808 14.325-1.815 2.725-2.987 4.753-5.166 8.906l-1.782 3.44-.479-1.33c-1.403-4.024-4.67-9.75-7.691-13.482-1.535-1.898-4.654-4.997-6.52-6.473-3.647-2.888-8.252-5.386-12.625-6.83-6.57-2.174-13.666-2.401-20.961-.665-2.509.6-5.909 1.768-8.021 2.774-2.113.99-5.2 2.969-7.031 4.51-1.7 1.427-4.853 4.867-6.124 6.651-.56.811-1.617 2.077-2.343 2.84-3.202 3.374-6.305 8.257-7.84 12.345C1.355 37.155.48 40.561.216 42.46c-.314 2.238-.28 6.976.066 9.166.347 2.174 1.073 5.143 1.766 7.22 4.687 13.919 18.75 30.126 39.198 45.197 8.731 6.44 18.486 12.638 26.49 16.824 2.625 1.363 2.559 1.249 1.09 1.882-.694.292-1.255.649-1.255.762 0 .308.066.292 2.08-.21l1.75-.423.907.438c.512.244.875.47.825.52-.05.065-1.964.746-4.241 1.525-4.457 1.525-5.216 1.898-3.549 1.72 1.717-.18 5.364-.893 7.675-1.51l2.228-.584 1.106.585c1.304.697 1.716.535.742-.293-.66-.567-.742-.73-.363-.73.297 0 5.843-1.768 8.253-2.628 4.935-1.784 20.763-9.312 25.153-11.973 9.473-5.743 17.544-11.94 25.17-19.305 7.063-6.83 11.701-12.297 16.537-19.468 13.006-19.273 16.57-38.19 9.44-50.049-2.343-3.91-6.519-7.787-11.9-11.032a77.528 77.528 0 0 1-4.142-2.758c-7.576-5.435-16.059-7.965-24.196-7.203zm7.477 4.267c.71.113 1.32.26 1.386.324.05.049-.412.098-1.056.098-2.806 0-7.23.68-10.712 1.638-5.545 1.525-11.338 4.315-16.372 7.868-2.839 2.012-2.888 2.045-1.684.812 5.794-5.938 13.32-9.945 20.219-10.789.825-.097 1.716-.21 1.98-.243.891-.13 4.919.065 6.239.292zm5.628 6.116c5.199.665 10.596 3.245 13.847 6.619 2.625 2.742 3.945 5.63 4.44 9.702.297 2.482.248 8.241-.099 10.837-.363 2.709-1.221 7.09-1.452 7.3-.116.114-.132.065-.066-.162.528-1.817.643-7.885.198-10.772-.859-5.532-3.087-9.637-7.196-13.287-4.027-3.553-8.12-6.019-12.478-7.495-3.037-1.022-5.166-1.347-8.929-1.363-1.75-.016-3.185-.033-3.185-.049 0-.065 4.374-1.038 5.397-1.184 3.103-.47 6.52-.52 9.523-.146zm-87.177.065c5.248.681 10.662 2.92 15.283 6.31 1.7 1.25 3.944 3.262 3.086 2.759-.264-.163-1.27-.763-2.228-1.33-4.225-2.532-9.077-4.43-13.88-5.452-5.694-1.216-11.752-1.362-17.561-.422-1.073.163-1.997.276-2.03.244-.083-.081 2.277-.795 4.29-1.314 4.045-1.006 9.078-1.314 13.04-.795zM25.65 18.254C17.76 22.83 12.76 29.302 10.63 37.74c-.297 1.103-.313.73-.082-1.039a28.097 28.097 0 0 1 3.63-10.545c.86-1.46 3.384-3.975 5.117-5.094 1.42-.908 4.077-2.239 5.942-2.953 1.568-.616 1.667-.584.413.146zm130.914 5.338c2.03 3.245 2.889 6.392 3.054 11.178.264 7.479-1.915 15.785-6.553 24.902-5.199 10.205-12.065 19.42-21.357 28.618-2.938 2.904-2.938 2.872.016-.6 9.474-11.21 16.818-23.735 21.093-35.983a74.59 74.59 0 0 0 3.334-13.709c.462-3.244.43-10.302-.083-13.01-.198-1.088-.396-2.175-.462-2.402-.049-.227-.066-.406-.016-.406s.495.633.974 1.412zM5.762 39.977c0 2.418.082 4.413.214 5.322C7.94 58.148 15.55 72.035 28.934 87.155c5.958 6.749 11.883 12.508 21.307 20.75 1.156 1.005.941.86-1.98-1.282-11.339-8.307-22.611-18.479-29.444-26.574-7.312-8.63-12.032-16.71-14.046-23.994-.858-3.115-1.09-4.64-1.188-7.755-.132-4.056.214-6.554 1.386-10.14.545-1.654.677-2.028.76-2.028.016 0 .033 1.736.033 3.845zM131.84 82.726c-3.185 4.494-8.368 10.448-12.626 14.471-10.843 10.27-23.255 18.138-37.284 23.654-2.459.957-6.7 2.4-7.08 2.4-.165 0-.495-.21-.743-.47l-.445-.454 1.947-.698c8.335-3.001 18.007-7.657 25.22-12.167 11.85-7.414 22.726-16.889 30.945-26.98.479-.6.908-1.087.958-1.087.033 0-.364.6-.892 1.33z"/></svg>