<svg xml:space="preserve" width="260.29" height="69.674" version="1.1" style="clip-rule:evenodd;fill-rule:evenodd;image-rendering:optimizeQuality;shape-rendering:geometricPrecision;text-rendering:geometricPrecision" viewBox="0 0 260.29 69.654" id="svg16" xmlns="http://www.w3.org/2000/svg"><defs id="defs4"><style type="text/css" id="style2">.fil0{fill:#2b2a29;fill-rule:nonzero}</style></defs><g id="Слой_x0020_1" transform="translate(206.731 -562.96)"><path d="M-124.565 590.245v-.742h-13.479V619.2h13.479v-.742h-10.783v-15.591h8.087v-.743h-8.087v-11.879Z" data-paper-data="{&quot;glyphName&quot;:&quot;E&quot;,&quot;glyphIndex&quot;:0,&quot;firstGlyphOfWord&quot;:true,&quot;word&quot;:1}" id="path740" style="mix-blend-mode:normal;stroke-width:.498415"/><path d="m-111.615 617.637-7.661-28.134h-2.696l8.087 29.697h2.696l8.986-29.697h-.899z" data-paper-data="{&quot;glyphName&quot;:&quot;V&quot;,&quot;glyphIndex&quot;:1,&quot;word&quot;:1}" id="path742" style="mix-blend-mode:normal;stroke-width:.498415"/><path d="m-77.454 589.503-9.435 28.347-9.435-28.347h-2.696V619.2h.899v-26.998l8.986 26.998h2.695l8.986-26.998V619.2h2.696v-29.697z" data-paper-data="{&quot;glyphName&quot;:&quot;M&quot;,&quot;glyphIndex&quot;:2,&quot;word&quot;:1}" id="path744" style="mix-blend-mode:normal;stroke-width:.498415"/><path d="M-31.344 595.442c0-3.135 1.697-5.197 5.79-5.197 2.697 0 4.294 1.402 4.494 2.227h2.296c-.3-.825-2.296-2.97-6.79-2.97-5.091 0-8.486 2.31-8.486 6.353 0 6.93 14.377 9.486 14.377 16.91 0 3.466-1.996 5.693-7.188 5.693-3.495 0-4.892-.99-5.392-2.227h-2.695c.399 1.072 2.695 2.97 8.087 2.97 5.391 0 9.884-2.063 9.884-6.683 0-8.909-14.377-10.724-14.377-17.076z" data-paper-data="{&quot;glyphName&quot;:&quot;S&quot;,&quot;glyphIndex&quot;:4,&quot;word&quot;:1}" id="path748" style="mix-blend-mode:normal;stroke-width:.498415"/><path d="M14.098 612.518c-2.396 3.878-6.843 6.187-11.681 6.187-7.94 0-14.377-6.563-14.377-14.354 0-7.79 6.436-14.353 14.377-14.353 4.838 0 7.887 3.052 9.228 6.187h2.453c-1.797-3.878-5.721-6.93-11.681-6.93-9.43 0-17.073 6.896-17.073 15.096 0 8.201 7.644 15.097 17.073 15.097 5.96 0 10.583-3.382 12.58-6.93z" data-paper-data="{&quot;glyphName&quot;:&quot;&quot;,&quot;glyphIndex&quot;:5,&quot;word&quot;:1}" id="path750" style="mix-blend-mode:normal;stroke-width:.498415"/><path d="M28.704 589.505v-.002H18.72V619.2h2.695v-16.333h7.289c4.42-.045 7.987-3.02 7.987-6.682 0-3.663-3.567-6.636-7.987-6.68zm0 12.616v.002h-7.289v-11.879h7.289v.002c2.931.06 5.291 2.694 5.291 5.937 0 3.243-2.36 5.878-5.291 5.937z" data-paper-data="{&quot;glyphName&quot;:&quot;P&quot;,&quot;glyphIndex&quot;:6,&quot;word&quot;:1}" id="path752" style="display:inline;mix-blend-mode:normal;stroke-width:.498415"/><path d="M53.559 590.245v-.742H40.08V619.2h13.479v-.742H42.776v-15.591h8.087v-.743h-8.087v-11.879Z" data-paper-data="{&quot;glyphName&quot;:&quot;E&quot;,&quot;glyphIndex&quot;:7,&quot;lastGlyphOfWord&quot;:true,&quot;word&quot;:1}" id="path754" style="mix-blend-mode:normal;stroke-width:.498415"/><path class="fil0" d="M-177.12 573.674c-.523-.508 1.198-13.582 8.1-10.152 9.824 4.802 16.103 10.015 23.5 17.933 4.966 5.398-1.365 7.334-6.766 11.07-.125-.174 1.14-1.349 2.798-2.668 1.726-1.399 3.812-2.901 3.161-4.467-2.024-5.095-22.635-21.615-26.027-19.855-3.247 1.749-5.074 8.423-4.766 8.139z" id="path7" style="clip-rule:evenodd;fill:#2b2a29;fill-rule:nonzero;stroke-width:.0519562;image-rendering:optimizeQuality;shape-rendering:geometricPrecision;text-rendering:geometricPrecision"/><path class="fil0" d="M-178.08 576.26c.799-1.026-.066.08.269-.318 1.462-1.891 3.411-1.541 4.481-1.116 2.333.944 3.861 1.55 7.04 3.749 2.395 1.675 5.485 4.139 7.87 6.551 1.94 1.972 3.239 3.335 3.863 5.013.452 1.398-.427 3.646-1.549 4.33-.469.556-4.817 2.803-5.738 3.25-.674.314 5.462-3.89 4.851-6.71-.092-.213-.23-.533-.613-1.127-.607-1.053-1.33-1.729-2.622-3.019-2.265-2.312-5.196-4.642-7.512-6.25-2.866-2.004-4.282-2.583-6.422-3.433-3.195-1.534-4.798 4.31-5.812 7.122 0 0 .052-1.11.202-2.816.134-1.448.337-3.38 1.693-5.226z" id="path9" style="clip-rule:evenodd;fill:#2b2a29;fill-rule:nonzero;stroke-width:.0519562;image-rendering:optimizeQuality;shape-rendering:geometricPrecision;text-rendering:geometricPrecision"/><path class="fil0" d="M-180.098 586.301c.522-.375 1.288-.477 2.006-.28 3.133.802 10.538 7.099 13.174 9.858 1.623 1.704 1.71 2.728.998 3.893-1.129 1.9-3.89 2.835-4.592 3.263-.782.36 2.555-2.059 3.202-3.55.392-1.028-.058-1.542-1.834-3.306-2.338-2.307-9.359-8.415-11.75-8.322-.147.012-.266-.088-.446-.036-1.514.423-2.545 3.899-3.337 4.997 0 0 1.075-5.542 2.58-6.517z" id="path11" style="clip-rule:evenodd;fill:#2b2a29;fill-rule:nonzero;stroke-width:.0519562;image-rendering:optimizeQuality;shape-rendering:geometricPrecision;text-rendering:geometricPrecision"/><path class="fil0" d="M-188.664 593.158c-1.707-1.375-2.564-1.965-3.378-2.452-1.988-1.19-3.109.478-3.99 1.771l-7.28 10.672c-.49.741-.51.927.71 1.818 12.96 10.284 23.185 17.387 31.279 23.91-9.692-6.792-20.976-13.726-30.166-20.395-6.145-4.083-6.383-4.283-3.309-8.89l6.13-9.028c4.216-6.36 4.264-5.37 10.241-1.089 17.025 12.147 50.63 37.82 57.288 43.148z" id="path13" style="clip-rule:evenodd;fill:#2b2a29;fill-rule:nonzero;stroke-width:.0519562;image-rendering:optimizeQuality;shape-rendering:geometricPrecision;text-rendering:geometricPrecision"/><path d="M1.777 597.013c-3.996.815-6.707 4.414-5.999 7.888.709 3.473 4.613 5.718 8.609 4.902 3.996-.815 6.81-4.43 6.102-7.904-.709-3.473-4.716-5.701-8.712-4.886zm2.48 12.152c-3.365.687-5.483-1.438-6.157-4.738-.673-3.3.443-6.087 3.808-6.773 3.365-.687 5.587 1.42 6.26 4.719.673 3.3-.546 6.106-3.911 6.792z" style="clip-rule:evenodd;mix-blend-mode:normal;fill-rule:evenodd;stroke-width:.438331;image-rendering:optimizeQuality;shape-rendering:geometricPrecision;text-rendering:geometricPrecision" id="path1081"/><path d="M-39.47 596.97c-3.689-7.11-12.973-9.61-20.459-5.726-7.485 3.884-10.788 12.914-7.098 20.025 3.689 7.11 12.974 9.61 20.459 5.726 7.485-3.884 10.788-12.914 7.099-20.025zm-26.88 13.947c-3.107-5.988.365-13.95 7.476-17.64 7.111-3.69 15.62-1.943 18.727 4.045 3.107 5.988-.365 13.95-7.476 17.64-7.11 3.69-15.62 1.943-18.727-4.045z" data-paper-data="{&quot;glyphName&quot;:&quot;O&quot;,&quot;glyphIndex&quot;:3,&quot;word&quot;:1}" id="path117" style="mix-blend-mode:normal;stroke-width:.465865"/><path d="M-48.064 607.67c.12-.147.223-.281.228-.301a.963.963 0 0 1 .108-.16c.17-.213.52-.854.642-1.163.154-.404.124-.624-.09-.662-.136-.024-.199.05-.615.684a4.972 4.972 0 0 1-.299.407c-.15.176-.639.638-.749.708a3.396 3.396 0 0 0-.219.152c-.477.355-1.365.72-2.014.83a5.638 5.638 0 0 1-1.08.057c-.705-.046-1.652-.358-2.28-.749-.315-.198-.941-.68-.913-.706.005-.002.143-.056.302-.112.163-.056.327-.112.365-.128l.24-.084a51.187 51.187 0 0 0 2.903-1.137c.712-.301 1.708-.743 1.798-.798.025-.014.118-.057.205-.095.087-.037.18-.08.205-.094.025-.015.248-.121.487-.238 1.443-.695 2.768-1.425 3.852-2.124 1.019-.659 1.675-1.264 1.843-1.71.095-.245-.047-.443-.385-.537-.23-.066-.823-.086-1.27-.043-.198.02-.38.035-.406.04-.378.037-1.534.292-2.032.452-.314.1-.42.15-.436.199-.027.084.02.21.27.741.224.469.273.647.198.718-.05.046-.468.268-.957.508-1.544.754-2.953 1.408-3.718 1.725-.84.349-1.638.673-1.776.72-.06.018-.37.137-.687.259-.732.286-1.45.545-1.618.59-.123.037-.135.03-.203-.072-.074-.107-.178-.405-.259-.72-.26-1.019-.209-2.175.13-3.038.545-1.39 1.641-2.375 3.108-2.799.827-.239 1.587-.259 2.458-.071.53.113.691.123.815.041.085-.05.077-.243-.007-.33-.294-.305-1.872-.698-2.827-.7-.443 0-.573.01-1.046.087-.549.091-1.192.29-1.694.521-.943.436-1.458.87-2.036 1.705-.407.587-.833 1.44-1.345 2.677-.168.405-.321.774-.347.818a.53.53 0 0 0-.054.124c-.003.022-.07.163-.147.308-.468.888-.76 1.21-2.295 2.543-.375.328-.53.479-.579.567-.074.134-.095.598-.031.664.17.177.812.219 2.154.137 1.415-.088 2.185.044 3.36.572.252.114.528.231.61.266.086.037.16.07.168.077.027.028 1.18.45 1.446.527 1.418.417 2.52.428 3.74.035a5.64 5.64 0 0 0 1.628-.8.882.882 0 0 1 .154-.101c.043-.001.817-.761.997-.984z" id="path299-3" style="clip-rule:evenodd;fill-rule:evenodd;stroke-width:.03557;image-rendering:optimizeQuality;shape-rendering:geometricPrecision;text-rendering:geometricPrecision"/></g></svg>
