<svg xmlns="http://www.w3.org/2000/svg" viewBox="0 0 20 18.435"><path fill="#2b2a29" d="M7.835 2.838c-.139-.135.317-3.594 2.143-2.686 2.599 1.27 4.26 2.65 6.217 4.744 1.314 1.429-.36 1.94-1.79 2.93-.033-.047.302-.358.74-.707.457-.37 1.01-.767.837-1.181C15.446 4.589 9.993.218 9.095.684c-.858.463-1.342 2.229-1.26 2.154z" class="fil0" clip-rule="evenodd" image-rendering="optimizeQuality" shape-rendering="geometricPrecision" text-rendering="geometricPrecision"/><path fill="#2b2a29" d="M7.58 3.522c.212-.272-.017.02.072-.084.386-.5.902-.408 1.185-.296.617.25 1.022.41 1.863.992a16.133 16.133 0 0 1 2.082 1.734c.514.521.857.882 1.022 1.326.12.37-.113.965-.41 1.146-.124.147-1.274.741-1.518.86-.178.083 1.445-1.03 1.284-1.776-.025-.056-.061-.14-.162-.298-.161-.279-.352-.457-.694-.799-.6-.612-1.375-1.228-1.988-1.653-.758-.53-1.133-.684-1.699-.909-.845-.406-1.27 1.14-1.538 1.885 0 0 .014-.294.054-.746.035-.383.09-.894.448-1.382z" class="fil0" clip-rule="evenodd" image-rendering="optimizeQuality" shape-rendering="geometricPrecision" text-rendering="geometricPrecision"/><path fill="#2b2a29" d="M7.047 6.179c.138-.1.34-.127.53-.075.83.213 2.789 1.879 3.486 2.609.43.45.453.722.264 1.03-.299.503-1.03.75-1.215.863-.207.095.676-.545.847-.94.104-.271-.015-.407-.485-.874-.619-.61-2.476-2.226-3.109-2.202-.039.003-.07-.023-.118-.009-.4.112-.673 1.032-.883 1.322 0 0 .285-1.466.683-1.724zM4.78 7.993c-.451-.364-.678-.52-.894-.649-.525-.315-.822.126-1.055.469L.905 10.636c-.13.196-.135.246.187.481 3.43 2.721 6.135 4.6 8.276 6.326-2.564-1.797-5.55-3.631-7.98-5.396-1.627-1.08-1.69-1.133-.876-2.352l1.621-2.388c1.116-1.683 1.128-1.421 2.71-.289C9.347 10.232 18.24 17.025 20 18.435z" class="fil0" clip-rule="evenodd" image-rendering="optimizeQuality" shape-rendering="geometricPrecision" text-rendering="geometricPrecision"/></svg>