<?xml version="1.0" encoding="UTF-8" standalone="no"?>
<!-- Creator: CorelDRAW X8 -->

<svg
   xml:space="preserve"
   width="6.6492224cm"
   height="5.8302197cm"
   version="1.1"
   style="clip-rule:evenodd;fill-rule:evenodd;image-rendering:optimizeQuality;shape-rendering:geometricPrecision;text-rendering:geometricPrecision"
   viewBox="0 0 251.3092 220.29196"
   id="svg22"
   sodipodi:docname="Evmos logo new1.svg"
   inkscape:version="1.1.1 (1:1.1+202109281949+c3084ef5ed)"
   xmlns:inkscape="http://www.inkscape.org/namespaces/inkscape"
   xmlns:sodipodi="http://sodipodi.sourceforge.net/DTD/sodipodi-0.dtd"
   xmlns="http://www.w3.org/2000/svg"
   xmlns:svg="http://www.w3.org/2000/svg"><sodipodi:namedview
   id="namedview24"
   pagecolor="#ffffff"
   bordercolor="#666666"
   borderopacity="1.0"
   inkscape:pageshadow="2"
   inkscape:pageopacity="0.0"
   inkscape:pagecheckerboard="0"
   showgrid="false"
   fit-margin-top="0"
   fit-margin-left="0"
   fit-margin-right="0"
   fit-margin-bottom="0"
   units="cm"
   inkscape:zoom="1.9247434"
   inkscape:cx="161.06043"
   inkscape:cy="199.24733"
   inkscape:window-width="1848"
   inkscape:window-height="1016"
   inkscape:window-x="72"
   inkscape:window-y="27"
   inkscape:window-maximized="1"
   inkscape:current-layer="Слой_x0020_1"
   inkscape:document-units="cm" />
 <defs
   id="defs4">
  <style
   type="text/css"
   id="style2">
   <![CDATA[
    .str0 {stroke:#2B2A29;stroke-width:2.3619}
    .fil1 {fill:#2B2A29}
    .fil0 {fill:#2B2A29;fill-rule:nonzero}
   ]]>
  </style>
 </defs>
 <g
   id="Слой_x0020_1"
   inkscape:label="Слой 1"
   inkscape:groupmode="layer"
   transform="translate(-58.384683,-84.072044)">
  <metadata
   id="CorelCorpID_0Corel-Layer" />
  <path
   class="fil0"
   d="m 205.56028,247.83177 -51.2107,-0.63749 -13.38703,-49.93575 43.56097,-29.96145 42.07353,31.02392 -19.33683,49.51077 z m -47.38584,-5.52481 45.89839,0.63747 16.57443,-42.92349 -36.33623,-26.13659 -37.82368,25.49911 z"
   id="path7"
   style="stroke-width:0.212493" />
  <path
   class="fil0"
   d="m 184.73601,95.899582 -35.69875,82.022128 35.91124,-24.22415 33.99881,24.64914 z M 141.60002,183.23402 184.73601,84 229.57194,191.94622 184.9485,159.43486 138.41264,190.45877 Z"
   id="path9"
   style="stroke-width:0.212493" />
  <path
   class="fil0"
   d="m 198.76052,257.39393 h -36.12373 l 18.06186,36.33623 z m -39.9486,-4.88733 h 47.59833 l -25.7116,51.84818 -25.7116,-51.84818 z"
   id="path11"
   style="stroke-width:0.212493" />
  <path
   class="fil1 str0"
   d="m 146.91234,157.52243 c -19.33682,-5.31232 -46.960859,-12.96205 -67.997622,-13.38703 -4.249851,0 -8.499702,0.21249 -11.899583,1.06246 -36.54872,8.71219 54.823085,61.19786 72.034975,67.14765 l -1.27495,-5.31232 c -14.87448,-5.7373 -88.6094,-47.38584 -72.247473,-57.37299 3.612374,-2.12492 11.474598,-2.54991 21.249255,-1.48745 21.036758,2.33742 49.085778,10.19964 58.222958,13.17454 z"
   id="path13" />
  <path
   class="fil1 str0"
   d="m 150.9497,256.54396 c -3.18739,1.27495 -14.66199,5.31231 -17.63689,6.58727 0,0 0,1.27495 -0.84997,2.7624 -1.48744,2.54991 -3.82486,3.61237 -6.16228,3.61237 -1.27496,0 -2.33742,-0.21249 -3.61238,-0.84996 -1.06246,-0.42499 -2.12492,-1.69994 -2.12492,-1.69994 -4.88733,1.69994 -9.77466,2.12492 -15.08697,2.33741 -2.54991,0.21249 -5.09983,0 -7.22475,-0.63747 -22.099225,-6.79977 31.66139,-48.44831 41.43605,-53.76062 l 1.27496,4.24985 c -8.7122,5.73729 -52.273175,39.31112 -41.436053,45.04842 3.187393,1.69994 11.262103,0.42498 19.549313,-1.48745 0,0 0,-2.33742 0.84997,-3.82487 2.12493,-3.39987 5.94979,-4.24985 9.34968,-2.7624 0.21249,0 1.27495,0.63748 1.91243,1.27496 0.63748,0.63748 0.84997,1.27495 1.06246,1.27495 3.18739,-1.27495 15.29946,-5.7373 16.9994,-6.16228 z"
   id="path15" />
  <path
   class="fil1 str0"
   d="m 210.8726,255.269 c 11.89958,4.46235 39.52362,14.4495 52.27317,15.08697 2.7624,0 5.31231,-0.21249 7.43724,-0.84997 15.51196,-4.46234 -5.31232,-25.07412 -23.58668,-39.9486 -8.4997,-7.01225 -16.78691,-13.17454 -20.18679,-14.87448 l -1.69994,4.24985 c 8.4997,5.7373 55.03557,40.37359 44.19845,46.11089 -3.61237,1.91244 -14.237,0.21249 -23.79917,-2.54991 -7.01225,-2.12493 -29.53646,-10.62463 -32.51136,-11.68709 z"
   id="path17" />
  <path
   class="fil1 str0"
   d="m 219.79729,156.24747 c 4.03736,-1.06246 8.07471,-1.91243 12.53706,-2.97489 0.63748,0 0.42498,-0.42499 0.42498,-0.63748 0.42499,-4.88733 6.37478,-9.34968 11.89959,-5.09982 1.48744,1.27495 1.69994,2.54991 1.91243,2.54991 14.66198,-3.18739 30.17394,-5.7373 42.711,-5.7373 4.46235,0 8.49971,0.21249 11.89959,1.27495 36.33622,9.56217 -55.46056,58.86044 -72.67246,64.17275 l 1.69994,-5.09982 c 15.08697,-5.5248 88.6094,-44.19845 72.45996,-54.61058 -3.61237,-2.33742 -11.4746,-2.76241 -21.24925,-1.91244 -10.41214,0.63748 -23.16169,2.9749 -34.4238,5.52481 0,0 -0.84997,4.67483 -5.09982,5.94979 -5.31231,1.27496 -7.86222,-2.9749 -8.07472,-2.9749 -5.09982,1.48745 -9.34967,2.54992 -11.89958,3.39989 z"
   id="path19" />
 </g>
</svg>
